<?xml version="1.0" encoding="utf-8"?>
<!-- Generator: Adobe Illustrator 25.0.1, SVG Export Plug-In . SVG Version: 6.00 Build 0)  -->
<svg version="1.1" id="Layer_1" xmlns="http://www.w3.org/2000/svg" xmlns:xlink="http://www.w3.org/1999/xlink" x="0px" y="0px"
	 viewBox="0 0 24 24" style="enable-background:new 0 0 24 24;" xml:space="preserve">
<style type="text/css">
	.st0{fill-rule:evenodd;clip-rule:evenodd;fill:#001489;}
</style>
<path class="st0" d="M2,8.4h20c0.4,0,0.7,0.3,0.9,0.6l1.1,4v0.1c0,0.2-0.1,0.4-0.3,0.5l0,0c-0.2,0.1-0.5,0-0.6-0.2L22,11.3l-0.3,8
	c0,0.4-0.3,0.7-0.7,0.7l0,0c-0.4,0-0.7-0.3-0.7-0.7c-0.1-0.9-0.2-2.9-0.3-3.8c0-0.3-0.3-0.5-0.5-0.5S19,15.2,19,15.5
	c-0.1,0.8-0.2,2.9-0.3,3.8c0,0.4-0.4,0.7-0.7,0.7l0,0c-0.4,0-0.7-0.3-0.7-0.7c-0.1-2.1-0.4-8.7-0.4-8.7h-1.7c0,0-0.3,6.7-0.4,8.7
	c0,0.4-0.3,0.7-0.7,0.7l0,0c-0.4,0-0.7-0.3-0.7-0.7c-0.1-0.9-0.2-2.9-0.3-3.8c0-0.3-0.3-0.5-0.5-0.5l0,0c-0.2,0-0.5,0.2-0.5,0.5
	c-0.1,0.8-0.2,2.9-0.3,3.8c0,0.4-0.4,0.7-0.7,0.7l0,0c-0.4,0-0.7-0.3-0.7-0.7c-0.1-2.1-0.4-8.7-0.4-8.7H7.6c0,0-0.3,6.7-0.4,8.7
	c0,0.4-0.3,0.7-0.7,0.7l0,0c-0.4,0-0.7-0.3-0.7-0.7c-0.1-0.9-0.2-2.9-0.3-3.8C5.3,15.2,5,15,4.8,15c-0.3,0-0.5,0.2-0.5,0.5
	c-0.1,0.8-0.2,2.9-0.3,3.8C4,19.7,3.6,20,3.3,20l0,0c-0.4,0-0.7-0.3-0.7-0.7l-0.3-8L1,13.4c-0.1,0.2-0.4,0.3-0.6,0.2l0,0
	C0.1,13.5,0,13.3,0,13.1V13l1.1-3.9C1.2,8.7,1.6,8.4,2,8.4z M5,4c1.1,0,2,0.9,2,2S6.1,8,5,8S3,7.1,3,6S3.9,4,5,4z M19,4
	c-1.1,0-2,0.9-2,2s0.9,2,2,2s2-0.9,2-2S20.1,4,19,4z M12,4c1.1,0,2,0.9,2,2s-0.9,2-2,2s-2-0.9-2-2S10.9,4,12,4z"/>
</svg>
