<?xml version="1.0" encoding="utf-8"?>
<!-- Generator: Adobe Illustrator 25.0.1, SVG Export Plug-In . SVG Version: 6.00 Build 0)  -->
<svg version="1.1" id="Layer_1" xmlns="http://www.w3.org/2000/svg" xmlns:xlink="http://www.w3.org/1999/xlink" x="0px" y="0px"
	 viewBox="0 0 24 24" style="enable-background:new 0 0 24 24;" xml:space="preserve">
<style type="text/css">
	.st0{fill:#FCFCFC;}
</style>
<path class="st0" d="M20,4V0H4v4H0v15h4v5h16v-5h4V4H20z M6,2h12v2H6V2z M14,9V8h2v1H14z M16,10v1h-2v-1H16z M5,8h7v3H5V8z M18,22H6
	v-7h12V22z M19,11h-2v-1h2V11z M19,9h-2V8h2V9z M16,18H8v-1h8V18z M14,20H8v-1h6V20z"/>
</svg>
