<svg id="e5qsv8lzvsrn1" xmlns="http://www.w3.org/2000/svg" xmlns:xlink="http://www.w3.org/1999/xlink" viewBox="0 0 425.200000 283.500000" shape-rendering="geometricPrecision" text-rendering="geometricPrecision"><style><![CDATA[#e5qsv8lzvsrn2_to {animation: e5qsv8lzvsrn2_to__to 3000ms linear 1 normal forwards}@keyframes e5qsv8lzvsrn2_to__to { 0% {transform: translate(212.600017px,207.950012px)} 50% {transform: translate(212.600017px,207.950012px);animation-timing-function: cubic-bezier(0.250000,1,0.250000,1)} 83.333333% {transform: translate(212.650017px,220.950012px)} 100% {transform: translate(212.650017px,220.950012px)} }#e5qsv8lzvsrn2 {animation: e5qsv8lzvsrn2_c_o 3000ms linear 1 normal forwards}@keyframes e5qsv8lzvsrn2_c_o { 0% {opacity: 0} 50% {opacity: 0} 83.333333% {opacity: 1} 100% {opacity: 1} }#e5qsv8lzvsrn3 {animation: e5qsv8lzvsrn3_c_o 3000ms linear 1 normal forwards}@keyframes e5qsv8lzvsrn3_c_o { 0% {opacity: 0} 33.333333% {opacity: 1} 100% {opacity: 1} }#e5qsv8lzvsrn4_to {animation: e5qsv8lzvsrn4_to__to 3000ms linear 1 normal forwards}@keyframes e5qsv8lzvsrn4_to__to { 0% {transform: translate(212.599991px,70.350002px)} 50% {transform: translate(212.599991px,96.900002px)} 100% {transform: translate(212.599991px,96.900002px)} }#e5qsv8lzvsrn4 {animation: e5qsv8lzvsrn4_c_o 3000ms linear 1 normal forwards}@keyframes e5qsv8lzvsrn4_c_o { 0% {opacity: 0} 33.333333% {opacity: 1} 100% {opacity: 1} }]]></style><g id="e5qsv8lzvsrn2_to" transform="translate(212.600017,207.950012)"><path id="e5qsv8lzvsrn2" d="M300.200000,227.800000L313.900000,227.800000L313.900000,224.300000L304.400000,224.300000L304.400000,214.100000L300.200000,214.100000L300.200000,227.800000ZM283.800000,222.400000L289.200000,222.400000L286.500000,217.200000L283.800000,222.400000ZM283.700000,214.100000L289.200000,214.100000L296.700000,227.800000L292,227.800000L290.700000,225.400000L282.200000,225.400000L281,227.800000L276.300000,227.800000L283.700000,214.100000ZM259.500000,217.500000L265.400000,217.500000L265.400000,227.800000L269.600000,227.800000L269.600000,217.500000L275.500000,217.500000L275.500000,214.100000L259.500000,214.100000L259.500000,217.500000ZM240.800000,214.100000L255.800000,214.100000L255.800000,217.300000L245,217.300000L245,219.500000L255.200000,219.500000L255.200000,222.300000L245,222.300000L245,224.500000L256.100000,224.500000L256.100000,227.800000L240.800000,227.800000L240.800000,214.100000ZM213.600000,227.800000L217.700000,227.800000L217.700000,218L217.700000,218L223.200000,227.900000L226.300000,227.900000L231.800000,218L231.800000,218L231.800000,227.900000L235.900000,227.900000L235.900000,214.200000L229.400000,214.200000L224.600000,223L219.800000,214.200000L213.300000,214.200000L213.300000,227.800000ZM193.700000,214.100000L209.800000,214.100000L209.800000,217.500000L203.900000,217.500000L203.900000,227.800000L199.700000,227.800000L199.700000,217.500000L193.800000,217.500000L193.800000,214.100000ZM175,227.800000L190.300000,227.800000L190.300000,224.500000L179.200000,224.500000L179.200000,222.300000L189.400000,222.300000L189.400000,219.500000L179.200000,219.500000L179.200000,217.300000L190,217.300000L190,214.100000L175,214.100000L175,227.800000ZM155.300000,214.100000L170.300000,214.100000L170.300000,217.300000L159.500000,217.300000L159.500000,219.500000L169.700000,219.500000L169.700000,222.300000L159.500000,222.300000L159.500000,224.500000L170.600000,224.500000L170.600000,227.800000L155.300000,227.800000L155.300000,214.100000ZM133.200000,227.800000L137.400000,227.800000L137.400000,222.600000L146.300000,222.600000L146.300000,227.800000L150.500000,227.800000L150.500000,214.100000L146.300000,214.100000L146.300000,219L137.400000,219L137.400000,214.100000L133.200000,214.100000L133.200000,227.800000ZM111.400000,223.300000L115.600000,223.300000C115.600000,224.800000,116.200000,224.900000,117.400000,224.900000L122.600000,224.900000C123.500000,224.900000,124.400000,224.800000,124.400000,223.700000C124.400000,222.500000,123.900000,222.400000,118.500000,222.400000C112.200000,222.400000,111.400000,221.600000,111.400000,218.300000C111.400000,215.800000,111.600000,213.900000,116.900000,213.900000L122.800000,213.900000C127.700000,213.900000,128.100000,215.600000,128.100000,218L128.100000,218.400000L123.900000,218.400000C123.900000,217.400000,123.800000,217,121.900000,217L117.200000,217C116.300000,217,115.600000,217.300000,115.600000,218.100000C115.600000,219.300000,116.100000,219.300000,120.600000,219.300000C127.100000,219.300000,128.700000,219.700000,128.700000,223.700000C128.700000,227.400000,127.400000,228,121.900000,228L116.800000,228C113,228,111.400000,227.300000,111.400000,224.300000L111.400000,223.300000Z" transform="translate(-212.650017,-220.950012)" opacity="0" fill="rgb(0,22,137)" stroke="none" stroke-width="1"/></g><path id="e5qsv8lzvsrn3" d="M355.700000,160.900000L355.700000,200.100000L346.600000,200.100000L346.600000,160.900000L335.300000,160.900000L335.300000,152.600000L367,152.600000L367,160.900000L355.700000,160.900000ZM310,171.400000L326.600000,171.400000L326.600000,179.700000L310,179.700000L310,200.100000L300.900000,200.100000L300.900000,152.500000L331.100000,152.500000L331.100000,160.800000L310,160.800000L310,171.400000ZM275.600000,177.200000L283.100000,177.200000L279.500000,160.100000L275.600000,177.200000ZM286.100000,152.200000L298,200.100000L287.700000,200.100000L284.500000,185.500000L274.200000,185.500000L271.300000,200.100000L261,200.100000L272.900000,152.200000L286.100000,152.200000ZM243.800000,173.300000C246.700000,173.300000,248,172.600000,248,169.400000L248,164.800000C248,161.600000,246.600000,160.900000,243.600000,160.900000L234.400000,160.900000L234.400000,173.400000L243.800000,173.400000ZM257.100000,169.400000C257.100000,176,254.900000,179.700000,249.400000,181.200000L259,200.100000L248.400000,200.100000L239.300000,181.600000L234.400000,181.600000L234.400000,200.100000L225.300000,200.100000L225.300000,152.500000L245.200000,152.500000C250.900000,152.500000,257,154.800000,257,164L257,169.400000ZM196.600000,172.600000L210.900000,152.600000L221.700000,152.600000L207,173.300000L222.500000,200.100000L211,200.100000L200.400000,180.900000L196.600000,185.800000L196.600000,200.100000L187.500000,200.100000L187.500000,152.500000L196.600000,152.500000L196.600000,172.600000ZM181.700000,200.100000C181.700000,200.100000,170.800000,200.900000,164.500000,200.900000C158.800000,200.900000,150.800000,199.400000,150.800000,190.900000L150.800000,161.800000C150.800000,153.300000,158.800000,151.800000,164.500000,151.800000C170.800000,151.800000,180.200000,152.600000,180.200000,152.600000L180.200000,160.400000L179.700000,160.900000C179.700000,160.900000,172.300000,160.100000,167.500000,160.100000C162.500000,160.100000,159.800000,160.900000,159.800000,166.300000L159.800000,186.400000C159.800000,191.800000,162.500000,192.600000,167.500000,192.600000C168.500000,192.600000,171.500000,192.600000,172.600000,192.500000L172.600000,182.400000L168.600000,182.400000L168.100000,181.900000L168.100000,174.900000L181.700000,174.900000L181.700000,200.100000ZM144.100000,152.600000L144.100000,200.200000L133.500000,200.200000L120.700000,174.200000L120.700000,200.200000L111.600000,200.200000L111.600000,152.600000L120.700000,152.600000L135,182.400000L135,152.600000L144.100000,152.600000ZM105,200.100000L96,200.100000L96,152.500000L105.100000,152.500000L105.100000,200.100000ZM67.200000,172.600000L81.500000,152.600000L92.300000,152.600000L77.600000,173.400000L93.100000,200.200000L81.600000,200.200000L71,180.900000L67.200000,185.800000L67.200000,200.100000L58.100000,200.100000L58.100000,152.500000L67.200000,152.500000L67.200000,172.600000Z" opacity="0" fill="rgb(0,22,137)" stroke="none" stroke-width="1"/><g id="e5qsv8lzvsrn4_to" transform="translate(212.599991,70.350002)"><path id="e5qsv8lzvsrn4" d="M212.600000,106.600000L238.400000,131.700000L186.800000,131.700000L212.600000,106.600000ZM202,96.300000L207.800000,102L193.100000,116.400000L202,96.300000ZM217.300000,102L223.100000,96.300000L232,116.400000L217.300000,102ZM178.500000,73.300000L197,91.400000L184.300000,119.900000L178.500000,73.300000ZM228.200000,91.400000L246.700000,73.300000L240.800000,119.900000L228.200000,91.400000ZM204.900000,89.900000L212.600000,72.500000L220.300000,89.900000L212.600000,97.400000L204.900000,89.900000ZM253.400000,57.600000L225.300000,85L212.600000,56.300000L199.900000,85L169.600000,55.500000L180,138L180,138.300000L245.200000,138.300000L245.200000,138L255.600000,55.500000L253.400000,57.600000Z" transform="translate(-212.599991,-96.900002)" opacity="0" fill="rgb(0,22,137)" stroke="none" stroke-width="1"/></g></svg>