<svg id="Layer_1" data-name="Layer 1" xmlns="http://www.w3.org/2000/svg" viewBox="0 0 425.2 283.5"><defs><style>.cls-1{fill:#fff;}</style></defs><path class="cls-1" d="M300.2,227.8h13.7v-3.5h-9.5V214.1h-4.2Zm-16.4-5.4h5.4l-2.7-5.2Zm-.1-8.3h5.5l7.5,13.7H292l-1.3-2.4h-8.5l-1.2,2.4h-4.7Zm-24.2,3.4h5.9v10.3h4.2V217.5h5.9v-3.4h-16Zm-18.7-3.4h15v3.2H245v2.2h10.2v2.8H245v2.2h11.1v3.3H240.8Zm-27.2,13.7h4.1V218h0l5.5,9.9h3.1l5.5-9.9h0v9.9h4.1V214.2h-6.5l-4.8,8.8-4.8-8.8h-6.5v13.6Zm-19.9-13.7h16.1v3.4h-5.9v10.3h-4.2V217.5h-5.9v-3.4ZM175,227.8h15.3v-3.3H179.2v-2.2h10.2v-2.8H179.2v-2.2H190v-3.2H175Zm-19.7-13.7h15v3.2H159.5v2.2h10.2v2.8H159.5v2.2h11.1v3.3H155.3Zm-22.1,13.7h4.2v-5.2h8.9v5.2h4.2V214.1h-4.2V219h-8.9v-4.9h-4.2Zm-21.8-4.5h4.2c0,1.5.6,1.6,1.8,1.6h5.2c.9,0,1.8-.1,1.8-1.2s-.5-1.3-5.9-1.3c-6.3,0-7.1-.8-7.1-4.1,0-2.5.2-4.4,5.5-4.4h5.9c4.9,0,5.3,1.7,5.3,4.1v.4h-4.2c0-1-.1-1.4-2-1.4h-4.7c-.9,0-1.6.3-1.6,1.1,0,1.2.5,1.2,5,1.2,6.5,0,8.1.4,8.1,4.4,0,3.7-1.3,4.3-6.8,4.3h-5.1c-3.8,0-5.4-.7-5.4-3.7Z"/><path class="cls-1" d="M355.7,160.9v39.2h-9.1V160.9H335.3v-8.3H367v8.3ZM310,171.4h16.6v8.3H310v20.4h-9.1V152.5h30.2v8.3H310Zm-34.4,5.8h7.5l-3.6-17.1Zm10.5-25L298,200.1H287.7l-3.2-14.6H274.2l-2.9,14.6H261l11.9-47.9Zm-42.3,21.1c2.9,0,4.2-.7,4.2-3.9v-4.6c0-3.2-1.4-3.9-4.4-3.9h-9.2v12.5h9.4Zm13.3-3.9c0,6.6-2.2,10.3-7.7,11.8l9.6,18.9H248.4l-9.1-18.5h-4.9v18.5h-9.1V152.5h19.9c5.7,0,11.8,2.3,11.8,11.5v5.4Zm-60.5,3.2,14.3-20h10.8L207,173.3l15.5,26.8H211l-10.6-19.2-3.8,4.9v14.3h-9.1V152.5h9.1v20.1Zm-14.9,27.5s-10.9.8-17.2.8c-5.7,0-13.7-1.5-13.7-10V161.8c0-8.5,8-10,13.7-10,6.3,0,15.7.8,15.7.8v7.8l-.5.5s-7.4-.8-12.2-.8c-5,0-7.7.8-7.7,6.2v20.1c0,5.4,2.7,6.2,7.7,6.2,1,0,4,0,5.1-.1V182.4h-4l-.5-.5v-7h13.6v25.2Zm-37.6-47.5v47.6H133.5l-12.8-26v26h-9.1V152.6h9.1L135,182.4V152.6ZM105,200.1H96V152.5h9.1v47.6ZM67.2,172.6l14.3-20H92.3L77.6,173.4l15.5,26.8H81.6L71,180.9l-3.8,4.9v14.3H58.1V152.5h9.1Z"/><path class="cls-1" d="M212.6,106.6l25.8,25.1H186.8ZM202,96.3l5.8,5.7-14.7,14.4Zm15.3,5.7,5.8-5.7,8.9,20.1ZM178.5,73.3,197,91.4l-12.7,28.5Zm49.7,18.1,18.5-18.1-5.9,46.6Zm-23.3-1.5,7.7-17.4,7.7,17.4-7.7,7.5Zm48.5-32.3L225.3,85,212.6,56.3,199.9,85,169.6,55.5,180,138v.3h65.2V138l10.4-82.5Z"/></svg>