<?xml version="1.0" encoding="utf-8"?>
<!-- Generator: Adobe Illustrator 25.0.1, SVG Export Plug-In . SVG Version: 6.00 Build 0)  -->
<svg version="1.1" id="Layer_1" xmlns="http://www.w3.org/2000/svg" xmlns:xlink="http://www.w3.org/1999/xlink" x="0px" y="0px"
	 viewBox="0 0 24 24" style="enable-background:new 0 0 24 24;" xml:space="preserve">
<style type="text/css">
	.st0{fill:#001489;}
</style>
<path class="st0" d="M12,0C5.4,0,0,5.4,0,12s5.4,12,12,12s12-5.4,12-12S18.6,0,12,0z M10,16H8v-6h2V16z M9,9.1
	C8.4,9.1,7.9,8.6,7.9,8c0-0.6,0.5-1.1,1.1-1.1s1.1,0.5,1.1,1.1C10.1,8.6,9.6,9.1,9,9.1z M17,16h-2v-2.9c0-1.9-2-1.7-2,0V16h-2v-6h2
	v1.1c0.9-1.6,4-1.7,4,1.5V16z"/>
</svg>
