<?xml version="1.0" encoding="utf-8"?>
<!-- Generator: Adobe Illustrator 25.0.1, SVG Export Plug-In . SVG Version: 6.00 Build 0)  -->
<svg version="1.1" id="Layer_1" xmlns="http://www.w3.org/2000/svg" xmlns:xlink="http://www.w3.org/1999/xlink" x="0px" y="0px"
	 viewBox="0 0 24 24" style="enable-background:new 0 0 24 24;" xml:space="preserve">
<style type="text/css">
	.st0{fill:#001489;}
</style>
<path class="st0" d="M12,3c5.5,0,10,3.6,10,8c0,4.9-5.1,8-9.9,8c-1.9,0-3.4-0.4-4.4-0.6c-1,0.6-1.6,1-4.3,1.8
	C4,18.8,4.1,17.4,4,15.9c-0.8-1-2-2.4-2-4.9C2,6.6,6.5,3,12,3z M12,1C5.7,1,0,5.2,0,11c0,2.1,0.7,4.1,2,5.6c0.1,1.8-1,4.5-2,6.4
	c2.6-0.5,6.3-1.5,8-2.5c1.4,0.3,2.8,0.5,4.1,0.5C19.2,21,24,16.1,24,11C24,5.2,18.3,1,12,1z"/>
</svg>
