<?xml version="1.0" encoding="utf-8"?>
<!-- Generator: Adobe Illustrator 25.0.1, SVG Export Plug-In . SVG Version: 6.00 Build 0)  -->
<svg version="1.1" id="Layer_1" xmlns="http://www.w3.org/2000/svg" xmlns:xlink="http://www.w3.org/1999/xlink" x="0px" y="0px"
	 viewBox="0 0 145.1 154" style="enable-background:new 0 0 145.1 154;" xml:space="preserve">
<style type="text/css">
	.st0{fill:#FFFFFF;}
</style>
<path class="st0" d="M121.4,99.8c-1.7-9.4-14.9-20.5-46.7-21.2h-0.3l0.2-0.3c7.2-13.1,11-25.2,11-34.8c0-7.2-2.1-13-6-16.3
	c-4-3.3-9.2-3.3-13.2,0c-3.9,3.3-6,9-6,16.3c0,9.6,3.8,21.7,11,34.8l0.2,0.3h-0.3c-31.9,0.7-45.1,11.8-46.7,21.2
	c-0.1,0.7-0.2,1.4-0.2,2c0,4.3,2.5,7.8,6.8,9.4c8.9,3.3,25.2-2.6,41.7-29.9l0.2-0.3l0.2,0.3c16.5,27.2,32.8,33.1,41.7,29.9
	c4.2-1.5,6.8-5,6.8-9.4C121.5,101.1,121.5,100.5,121.4,99.8 M71.5,80.2c-5.8,9.5-12.1,16.7-18.4,20.9c-5.5,3.7-10.8,4.9-14.8,3.4
	c-3-1.1-4.7-3.5-4.7-6.6c0-0.5,0-0.9,0.1-1.4c0.7-4.3,4.4-8.2,10.4-11.1c6.8-3.3,16.2-5.2,27.3-5.5h0.3L71.5,80.2z M73,77.4
	l-0.2,0.3l-0.2-0.3c-5.9-10.7-9-20.6-9-28.5c0-5.6,1.6-10,4.5-12.5c2.8-2.4,6.4-2.4,9.2,0c2.9,2.4,4.5,6.9,4.5,12.5
	C82,56.8,78.9,66.7,73,77.4 M107.6,104.5c-4.1,1.5-9.3,0.3-14.8-3.4c-6.3-4.2-12.6-11.4-18.4-20.9l-0.2-0.3h0.3
	c11.1,0.3,20.5,2.2,27.3,5.5c6,2.9,9.6,6.9,10.4,11.1c0.1,0.5,0.1,0.9,0.1,1.4C112.3,101,110.6,103.5,107.6,104.5"/>
</svg>
