<?xml version="1.0" encoding="utf-8"?>
<!-- Generator: Adobe Illustrator 25.0.1, SVG Export Plug-In . SVG Version: 6.00 Build 0)  -->
<svg version="1.1" id="Layer_1" xmlns="http://www.w3.org/2000/svg" xmlns:xlink="http://www.w3.org/1999/xlink" x="0px" y="0px"
	 viewBox="0 0 67.1 85.1" style="enable-background:new 0 0 67.1 85.1;" xml:space="preserve">
<style type="text/css">
	.st0{fill:#001489;}
</style>
<g id="Layer_2_1_">
	<g id="Layer_1-2">
		<path class="st0" d="M7.7,79.7c0.1-0.3,0.3-0.5,0.4-0.8c2.2-2.2,2.1-4.6,1.3-7.6c-3.2-13-6.2-26-9.3-39c0-0.2-0.1-0.5-0.1-0.8
			l11.8-4c5.6-1.9,11.2-3.8,16.8-5.6c0.9-0.3,1.7-1,2.1-1.9c2-4.3,4.1-8.5,6.1-12.8c0.2-0.3,0.3-0.7,0.6-1.1l2.6,1L43.9,0l11,5.9
			c3.7,2,7.4,4,11.1,5.9c0.7,0.2,1.1,0.9,1,1.6c0,12,0,24,0,36c0,0.5-0.3,1-0.8,1.3c-5,1.7-10.1,3.2-15.1,4.8
			c-0.2,0.1-0.5,0.1-0.9,0.2v-31c-1.5,0.6-2.7,1-3.8,1.5c-0.4,0.2-0.7,0.6-0.8,1c-1.1,2.4-2.3,4.8-3.3,7.3c-0.4,1-1.3,1.7-2.3,1.9
			c-6.4,1.7-12.7,3.2-19,4.9c-0.4,0.1-0.7,0.2-1.3,0.4c2,7.8,4,15.6,6,23.7l41.2-10.7c0,3.2,0,6.1,0,9.1c0,2-0.1,3.9,0,5.9
			c0,1.1-0.4,1.5-1.4,1.8c-11,3.2-21.9,6.4-32.8,9.6c-4.5,1.3-9,2.7-13.6,3.9c-0.7,0.2-1.4,0.1-2.1-0.2
			C13.9,83.2,10.8,81.4,7.7,79.7z"/>
		<path class="st0" d="M28.8,46.4l-1.1-1.7h2.1l-0.6-2l2,0.4L30.9,41l1.9,0.9l0.3-2.1l1.6,1.3l0.8-1.9l1.2,1.7l1.3-1.7l0.7,1.9
			l1.6-1.3l0.3,2.1l1.8-0.9v2l2-0.5l-0.7,2h2.1l-1.1,1.7l2.1,0.6L44.9,48l2.1,1.2l-1.8,1l1.5,1.4l-2,0.6l1.2,1.7h-2.1l0.7,2.1
			l-1.9-0.5v2l-1.8-0.9L40.4,59l-1.6-1.4l-0.8,2l-1.3-1.7l-1.2,1.7l-0.8-1.9L33.2,59l-0.3-2L31,57.8l0.2-2.1l-2.1,0.5l0.7-2h-2.1
			l1.1-1.8l-2.1-0.6l1.9-1.3l-2-1.1l1.9-1L26.7,47L28.8,46.4z"/>
	</g>
</g>
</svg>
