<?xml version="1.0" encoding="utf-8"?>
<!-- Generator: Adobe Illustrator 25.0.1, SVG Export Plug-In . SVG Version: 6.00 Build 0)  -->
<svg version="1.1" id="Layer_1" xmlns="http://www.w3.org/2000/svg" xmlns:xlink="http://www.w3.org/1999/xlink" x="0px" y="0px"
	 viewBox="0 0 24 24" style="enable-background:new 0 0 24 24;" xml:space="preserve">
<style type="text/css">
	.st0{fill:#001489;}
</style>
<path class="st0" d="M23.9,9.8C24,9.6,24,9.3,24,9c0-0.8-0.4-1.5-1.1-2c-2.2-1.5-1.9-1.1-2.7-3.5c-0.3-1-1.3-1.7-2.4-1.7l0,0
	c-2.7,0-2.2,0.2-4.3-1.4C13.1,0.2,12.5,0,12,0s-1.1,0.2-1.5,0.5C8.3,2,8.8,1.8,6.2,1.8l0,0c-1.1,0-2.1,0.7-2.4,1.7
	C2.9,6,3.2,5.6,1.1,7.1C0.4,7.5,0,8.3,0,9c0,0.3,0,0.5,0.1,0.8c0.8,2.4,0.8,2,0,4.4C0,14.4,0,14.7,0,15c0,0.8,0.4,1.5,1.1,2
	c2.1,1.5,1.9,1.1,2.7,3.5c0.3,1,1.3,1.7,2.4,1.7l0,0c2.7,0,2.2-0.2,4.3,1.4c0.4,0.3,1,0.5,1.5,0.5s1.1-0.2,1.5-0.5
	c2.1-1.5,1.7-1.4,4.3-1.4l0,0c1.1,0,2.1-0.7,2.4-1.7c0.8-2.4,0.5-2.1,2.7-3.5c0.7-0.5,1.1-1.2,1.1-2c0-0.3,0-0.5-0.1-0.8
	C23,11.8,23,12.2,23.9,9.8z M10.5,16.7L6,12.4l1.9-1.9l2.6,2.5l5.6-5.8L18,9.1L10.5,16.7z"/>
</svg>
